{"title":"Madness.2010.BRRip.H264.Feel-Free","uid":5954411,"size":1314439916,"categoryP":"video","categoryS":"movies","magnet":"?xt=urn:btih:c581c40f69ba4708252112866757accf76f76d59&amp;dn=Madness.2010.BRRip.H264.Feel-Free&amp;tr=udp%3A%2F%2Ftracker.openbittorrent.com%3A80&amp;tr=udp%3A%2F%2Fopen.demonii.com%3A1337&amp;tr=udp%3A%2F%2Ftracker.coppersurfer.tk%3A6969&amp;tr=udp%3A%2F%2Fexodus.desync.com%3A6969","seeders":0,"leechers":1,"uploader":"neon","files":-1,"time":1289656509,"description":" &lt;a href=&quot;http://rapidhdd.com/images/10591vlcsnap-2010-11-13-07h38m06s155.png&quot; rel=&quot;nofollow&quot; target=&quot;_NEW&quot;&gt;http://rapidhdd.com/images/10591vlcsnap-2010-11-13-07h38m06s155.png&lt;/a&gt; &lt;a href=&quot;\nhttp://www.rapidhdd.com/images/813938vlcsnap-2010-11-13-07h38m57s164.png&quot; rel=&quot;nofollow&quot; target=&quot;_NEW&quot;&gt;\nhttp://www.rapidhdd.com/images/813938vlcsnap-2010-11-13-07h38m57s164.png&lt;/a&gt; &lt;a href=&quot;\nhttp://www.rapidhdd.com/images/278272vlcsnap-2010-11-13-07h39m06s248.png&quot; rel=&quot;nofollow&quot; target=&quot;_NEW&quot;&gt;\nhttp://www.rapidhdd.com/images/278272vlcsnap-2010-11-13-07h39m06s248.png&lt;/a&gt; &lt;a href=&quot;\nhttp://www.rapidhdd.com/images/716135vlcsnap-2010-11-13-07h39m12s55.png&quot; rel=&quot;nofollow&quot; target=&quot;_NEW&quot;&gt;\nhttp://www.rapidhdd.com/images/716135vlcsnap-2010-11-13-07h39m12s55.png&lt;/a&gt; &lt;a href=&quot;\nhttp://www.rapidhdd.com/images/501617vlcsnap-2010-11-13-07h40m39s153.png&quot; rel=&quot;nofollow&quot; target=&quot;_NEW&quot;&gt;\nhttp://www.rapidhdd.com/images/501617vlcsnap-2010-11-13-07h40m39s153.png&lt;/a&gt;\n\n\nGenre: Horror\nLanguage:English\n &lt;a href=&quot; http://www.imdb.com/title/tt1602093/&quot; rel=&quot;nofollow&quot; target=&quot;_NEW&quot;&gt; http://www.imdb.com/title/tt1602093/&lt;/a&gt;\nSource:720p.BluRay.x264.EUSTASS\n\nGeneral\nComplete name :Madness.2010.BRRip.H264.Feel-Free\nFormat : MPEG-4\nFormat profile : Base Media\nCodec ID : mp42\nFile size : 1.22 GiB\nDuration : 1h 27mn\nOverall bit rate : 1 990 Kbps\nVideo #1\nCodec ID : avc1\nCodec ID/Info : Advanced Video Coding\nDuration : 1h 27mn\nBit rate mode : Variable\nBit rate : 1 509 Kbps\nWidth : 720 pixels\nHeight : 304 pixels\nDisplay aspect ratio : 2.35:1\nFrame rate mode : Constant\nFrame rate : 23.976 fps\nResolution : 24 bits\nColorimetry : 4:2:0\nScan type : Progressive\nBits/(Pixel*Frame) : 0.288\nStream size : 949 MiB (76%)\nAudio #2\nID : 2\nFormat : AAC\nFormat/Info : Advanced Audio Codec\nFormat version : Version 4\nFormat profile : LC\nFormat settings, SBR : No\nCodec ID : 40\nDuration : 1h 27mn\nBit rate mode : Constant\nBit rate : 477 Kbps\nNominal bit rate : 480 Kbps\nChannel(s) : 6 channels\nChannel positions : Front: L C R, Rear: L R, LFE\nSampling rate : 48.0 KHz\nResolution : 16 bits\nStream size : 300 MiB (24%)\n\nPlot:\nMadness plays like a student-made homage to Texas Chainsaw Massacre / Hills Have\nEyes etc. The acting is so terrible it is unintentionally hilarious, as I doubt any of the cast have any acting skill / experience whatsoever. The plot is basically non-existentand much of the characters actions make no sense at all. The strange thing is that it features Swedish actors playing American characters, who are travelling across backwoods USA, but it is actually filmed on location in Sweden. And the 'bad guys' talk in Swedish whilst the 'good guys' all talk in English with heavy Swedish accents.Rather bizarre.\n\n","torrent":{"xt":"urn:btih:c581c40f69ba4708252112866757accf76f76d59","amp;dn":"Madness.2010.BRRip.H264.Feel-Free","amp;tr":["udp%3A%2F%2Ftracker.openbittorrent.com%3A80","udp%3A%2F%2Fopen.demonii.com%3A1337","udp%3A%2F%2Ftracker.coppersurfer.tk%3A6969","udp%3A%2F%2Fexodus.desync.com%3A6969"],"infoHash":"c581c40f69ba4708252112866757accf76f76d59","infoHashBuffer":{"type":"Buffer","data":[197,129,196,15,105,186,71,8,37,33,18,134,103,87,172,207,118,247,109,89]},"announce":[],"urlList":[]}}